<svg xmlns="http://www.w3.org/2000/svg" width="402" height="99" viewBox="0 0 402 99">
<g>
<path d="M 89.04 82.16 L 82.20 89.00 L 53.35 89.00 C26.18,88.99 24.31,88.88 21.19,86.97 C15.21,83.33 14.94,81.53 15.24,46.75 L 15.50 15.50 L 17.77 15.18 C19.01,15.00 21.51,15.77 23.31,16.88 C26.57,18.90 26.61,18.90 29.54,16.96 C33.28,14.50 36.70,14.49 40.40,16.93 C43.26,18.81 43.36,18.81 46.89,16.92 C51.25,14.58 53.20,14.52 57.60,16.61 C60.74,18.11 61.27,18.10 64.54,16.55 C71.06,13.46 71.46,14.06 71.78,27.22 L 72.06 38.92 L 80.28 39.21 L 88.50 39.50 ZM 381.55 83.49 C372.82,87.92 361.31,86.42 355.59,80.10 C352.90,77.13 352.00,77.48 352.00,81.50 L 352.00 85.00 L 265.00 85.00 L 265.00 71.25 L 265.00 57.50 L 258.52 57.23 C248.69,56.82 248.00,57.85 248.00,73.00 L 248.00 85.00 L 234.00 85.00 L 234.00 46.00 L 241.00 46.00 C247.92,46.00 248.00,46.03 248.00,48.67 L 248.00 51.35 L 250.25 49.24 C253.96,45.77 257.11,45.14 267.84,45.73 L 278.00 46.29 L 278.00 82.49 L 286.35 69.99 L 294.70 57.50 L 287.10 57.00 L 279.50 56.50 L 279.20 51.25 L 278.90 46.00 L 315.95 46.00 C336.33,46.00 353.00,46.25 353.00,46.56 C353.00,46.87 349.15,52.73 344.45,59.59 C339.76,66.46 335.66,72.73 335.35,73.54 C334.89,74.74 336.10,75.00 342.23,75.00 L 349.67 75.00 L 349.25 67.25 C348.88,60.16 349.07,59.15 351.51,55.46 C356.52,47.87 364.38,44.32 373.62,45.47 C379.66,46.23 384.47,49.09 387.68,53.85 C389.99,57.28 391.69,65.07 390.54,66.93 C390.13,67.60 384.92,68.00 376.44,68.00 C363.63,68.00 363.00,68.10 363.00,70.01 C363.00,73.00 368.69,76.22 372.87,75.59 C374.73,75.31 377.02,74.39 377.95,73.54 C380.18,71.53 381.28,71.59 386.06,74.03 C390.04,76.06 390.04,76.06 388.27,78.52 C387.30,79.87 384.27,82.11 381.55,83.49 ZM 148.77 84.00 C145.20,86.18 137.36,86.61 133.00,84.88 C129.42,83.46 125.14,79.13 122.79,74.55 C121.14,71.35 120.85,69.33 121.25,63.80 C121.69,57.66 121.55,57.00 119.87,57.00 C118.13,57.00 118.00,58.00 118.00,71.00 L 118.00 85.00 L 105.00 85.00 L 105.00 57.13 L 102.25 56.82 C99.69,56.52 99.48,56.15 99.20,51.25 L 98.90 46.00 L 105.00 46.00 L 105.02 38.75 C105.05,29.90 107.45,23.94 112.19,20.96 C114.90,19.25 116.63,18.95 121.76,19.32 C130.48,19.95 131.47,20.98 128.75,26.58 C126.86,30.47 126.21,31.00 123.34,31.00 C119.19,31.00 118.00,33.11 118.00,40.43 L 118.00 46.00 L 122.50 46.00 C126.22,46.00 127.00,46.32 127.00,47.86 C127.00,49.61 127.29,49.58 131.67,47.36 C137.15,44.59 141.16,44.40 147.68,46.61 C150.98,47.73 152.54,47.89 152.80,47.11 C153.03,46.41 156.43,46.00 162.08,46.00 L 171.00 46.00 L 171.00 32.00 L 184.00 32.00 L 184.00 46.00 L 204.00 46.00 L 204.00 57.87 C204.00,68.35 204.24,70.04 206.07,72.37 C207.67,74.40 209.03,75.00 212.02,75.00 C218.12,75.00 219.00,72.90 219.00,58.28 L 219.00 46.00 L 232.14 46.00 L 231.82 61.90 C231.53,76.12 231.29,78.03 229.50,80.04 C222.89,87.45 202.94,88.31 195.58,81.49 C192.24,78.39 191.81,78.38 192.95,81.37 C193.71,83.37 193.46,83.92 191.38,84.87 C187.72,86.54 180.22,86.24 176.92,84.29 C172.38,81.61 171.00,77.49 171.00,66.60 C171.00,57.03 170.99,57.00 168.50,57.00 L 166.00 57.00 L 166.00 85.00 L 159.50 85.00 C154.39,85.00 153.00,84.68 153.00,83.50 C153.00,81.57 152.70,81.60 148.77,84.00 ZM 22.92 81.08 L 25.85 84.00 L 67.50 84.00 L 67.19 53.28 C67.03,36.38 66.75,22.42 66.58,22.25 C66.42,22.08 65.03,22.42 63.50,23.00 C61.23,23.86 59.97,23.67 56.67,21.95 L 52.62 19.83 L 48.14 22.07 L 43.65 24.31 L 39.44 22.08 L 35.23 19.84 L 30.97 22.02 C27.51,23.78 26.26,23.98 24.31,23.09 C22.99,22.49 21.48,22.00 20.95,22.00 C20.37,22.00 20.00,32.95 20.00,50.08 L 20.00 78.15 ZM 74.00 82.00 C75.10,83.10 76.90,84.00 78.00,84.00 C79.10,84.00 80.90,83.10 82.00,82.00 C83.85,80.15 84.00,78.67 84.00,62.00 L 84.00 44.00 L 72.00 44.00 L 72.00 62.00 C72.00,78.67 72.15,80.15 74.00,82.00 ZM 308.75 75.26 C313.56,75.44 317.56,75.68 317.64,75.79 C317.86,76.12 330.00,58.23 330.00,57.58 C330.00,57.26 326.81,57.00 322.91,57.00 C316.65,57.00 315.75,56.76 315.29,55.00 C315.00,53.90 314.44,53.00 314.04,53.00 C313.14,53.00 300.00,72.61 300.00,73.95 C300.00,74.49 303.94,75.07 308.75,75.26 ZM 140.31 73.99 C144.30,75.60 147.11,75.05 150.08,72.08 C153.65,68.50 153.99,63.53 150.93,59.63 C149.26,57.52 148.01,57.00 144.54,57.00 C139.10,57.00 136.13,59.33 135.34,64.23 C134.66,68.49 136.73,72.55 140.31,73.99 ZM 276.37 35.93 C274.92,37.07 272.73,38.00 271.50,38.00 C267.49,38.00 264.00,34.31 264.00,30.08 C264.00,25.77 266.10,23.33 270.58,22.43 C277.89,20.97 282.30,31.26 276.37,35.93 ZM 57.36 66.80 C56.46,68.22 54.28,68.54 43.87,68.78 C35.07,68.98 31.10,68.70 30.23,67.83 C28.25,65.85 28.81,64.09 31.64,63.37 C34.49,62.66 57.01,63.68 57.90,64.56 C58.19,64.86 57.95,65.86 57.36,66.80 ZM 56.42 54.39 C53.38,55.56 31.46,55.06 30.20,53.80 C26.92,50.52 28.72,50.00 43.50,50.00 C57.06,50.00 58.00,50.12 58.00,51.89 C58.00,52.93 57.29,54.06 56.42,54.39 ZM 185.24 72.84 C185.92,73.52 187.38,73.95 188.49,73.79 C190.29,73.53 190.53,72.64 190.79,65.25 L 191.08 57.00 L 184.00 57.00 L 184.00 64.30 C184.00,68.77 184.48,72.08 185.24,72.84 ZM 363.00 58.56 C363.00,59.69 364.63,60.00 370.47,60.00 C377.15,60.00 377.87,59.81 377.33,58.25 C376.39,55.54 373.92,54.00 370.53,54.00 C367.00,54.00 363.00,56.42 363.00,58.56 ZM 43.82 38.25 C43.53,40.29 42.88,40.53 36.87,40.79 C31.49,41.03 30.13,40.78 29.62,39.45 C28.54,36.63 29.91,36.00 37.13,36.00 C43.83,36.00 44.12,36.10 43.82,38.25 Z" fill="rgb(2,2,2)" data-index="0" style="opacity: 1;"></path>

<path d="M 0.00 49.50 L 0.00 0.00 L 201.00 0.00 L 402.00 0.00 L 402.00 49.50 L 402.00 99.00 L 201.00 99.00 L 0.00 99.00 L 0.00 49.50 ZM 85.62 85.58 L 89.04 82.16 L 88.77 60.83 L 88.50 39.50 L 80.28 39.21 L 72.06 38.92 L 71.78 27.22 C71.46,14.06 71.06,13.46 64.54,16.55 C61.27,18.10 60.74,18.11 57.60,16.61 C53.20,14.52 51.25,14.58 46.89,16.92 C43.36,18.81 43.26,18.81 40.40,16.93 C36.70,14.49 33.28,14.50 29.54,16.96 C26.61,18.90 26.57,18.90 23.31,16.88 C21.51,15.77 19.01,15.00 17.77,15.18 L 15.50 15.50 L 15.24 46.75 C14.94,81.53 15.21,83.33 21.19,86.97 C24.31,88.88 26.18,88.99 53.35,89.00 L 82.20 89.00 L 85.62 85.58 ZM 148.77 84.00 C152.70,81.60 153.00,81.57 153.00,83.50 C153.00,84.68 154.39,85.00 159.50,85.00 L 166.00 85.00 L 166.00 71.00 L 166.00 57.00 L 168.50 57.00 C170.99,57.00 171.00,57.03 171.00,66.60 C171.00,77.49 172.38,81.61 176.92,84.29 C180.22,86.24 187.72,86.54 191.38,84.87 C193.46,83.92 193.71,83.37 192.95,81.37 C191.81,78.38 192.24,78.39 195.58,81.49 C199.04,84.70 203.83,85.99 212.28,85.99 C223.07,86.00 230.36,81.95 231.61,75.24 C232.53,70.38 233.97,73.12 233.98,79.75 L 234.00 85.00 L 241.00 85.00 L 248.00 85.00 L 248.00 73.00 C248.00,57.85 248.69,56.82 258.52,57.23 L 265.00 57.50 L 265.00 71.25 L 265.00 85.00 L 308.50 85.00 L 352.00 85.00 L 352.00 81.50 C352.00,77.48 352.90,77.13 355.60,80.11 C361.30,86.42 372.83,87.92 381.55,83.49 C384.27,82.11 387.30,79.87 388.27,78.52 C390.04,76.06 390.04,76.06 386.06,74.03 C381.28,71.59 380.18,71.53 377.95,73.54 C377.02,74.39 374.73,75.31 372.87,75.59 C368.69,76.22 363.00,73.00 363.00,70.01 C363.00,68.10 363.63,68.00 376.44,68.00 C384.92,68.00 390.13,67.60 390.54,66.93 C391.69,65.07 389.99,57.28 387.68,53.85 C384.47,49.09 379.66,46.23 373.62,45.47 C364.38,44.32 356.52,47.87 351.51,55.46 C349.07,59.15 348.88,60.16 349.25,67.25 L 349.67 75.00 L 342.23 75.00 C336.10,75.00 334.89,74.74 335.35,73.54 C335.66,72.73 339.76,66.46 344.45,59.59 C349.15,52.73 353.00,46.87 353.00,46.56 C353.00,46.25 336.33,46.00 315.95,46.00 L 278.90 46.00 L 279.20 51.25 L 279.50 56.50 L 287.10 57.00 L 294.70 57.50 L 286.35 69.99 L 278.00 82.49 L 278.00 64.39 L 278.00 46.29 L 267.84 45.73 C257.11,45.14 253.96,45.77 250.25,49.24 L 248.00 51.35 L 248.00 48.67 L 248.00 46.00 L 233.50 46.00 L 219.00 46.00 L 219.00 58.28 C219.00,72.90 218.12,75.00 212.02,75.00 C209.03,75.00 207.67,74.40 206.07,72.37 C204.24,70.04 204.00,68.35 204.00,57.87 L 204.00 46.00 L 194.00 46.00 L 184.00 46.00 L 184.00 39.00 L 184.00 32.00 L 177.50 32.00 L 171.00 32.00 L 171.00 39.00 L 171.00 46.00 L 162.08 46.00 C156.43,46.00 153.03,46.41 152.80,47.11 C152.54,47.89 150.98,47.73 147.68,46.61 C141.16,44.40 137.15,44.59 131.67,47.36 C127.29,49.58 127.00,49.61 127.00,47.86 C127.00,46.32 126.22,46.00 122.50,46.00 L 118.00 46.00 L 118.00 40.43 C118.00,33.11 119.19,31.00 123.34,31.00 C126.21,31.00 126.86,30.47 128.75,26.58 C131.47,20.98 130.48,19.95 121.76,19.32 C116.63,18.95 114.90,19.25 112.19,20.96 C107.45,23.94 105.05,29.90 105.02,38.75 L 105.00 46.00 L 101.95 46.00 L 98.90 46.00 L 99.20 51.25 C99.48,56.15 99.69,56.52 102.25,56.82 L 105.00 57.13 L 105.00 71.07 L 105.00 85.00 L 111.50 85.00 L 118.00 85.00 L 118.00 71.00 C118.00,58.00 118.13,57.00 119.87,57.00 C121.55,57.00 121.69,57.66 121.25,63.80 C120.85,69.33 121.14,71.35 122.79,74.55 C125.14,79.13 129.42,83.46 133.00,84.88 C137.36,86.61 145.20,86.18 148.77,84.00 ZM 276.37 35.93 C282.30,31.26 277.89,20.97 270.58,22.43 C266.10,23.33 264.00,25.77 264.00,30.08 C264.00,34.31 267.49,38.00 271.50,38.00 C272.73,38.00 274.92,37.07 276.37,35.93 ZM 22.92 81.08 L 20.00 78.15 L 20.00 50.08 C20.00,32.95 20.37,22.00 20.95,22.00 C21.48,22.00 22.99,22.49 24.31,23.09 C26.26,23.98 27.51,23.78 30.97,22.02 L 35.23 19.84 L 39.44 22.08 L 43.65 24.31 L 48.14 22.07 L 52.62 19.83 L 56.67 21.95 C59.97,23.67 61.23,23.86 63.50,23.00 C65.03,22.42 66.42,22.08 66.58,22.25 C66.75,22.42 67.03,36.38 67.19,53.28 L 67.50 84.00 L 46.67 84.00 L 25.85 84.00 L 22.92 81.08 ZM 57.36 66.80 C57.95,65.86 58.19,64.86 57.90,64.56 C57.01,63.68 34.49,62.66 31.64,63.37 C28.81,64.09 28.25,65.85 30.23,67.83 C31.10,68.70 35.07,68.98 43.87,68.78 C54.28,68.54 56.46,68.22 57.36,66.80 ZM 56.42 54.39 C57.29,54.06 58.00,52.93 58.00,51.89 C58.00,50.12 57.06,50.00 43.50,50.00 C28.72,50.00 26.92,50.52 30.20,53.80 C31.46,55.06 53.38,55.56 56.42,54.39 ZM 43.82 38.25 C44.12,36.10 43.83,36.00 37.13,36.00 C29.91,36.00 28.54,36.63 29.62,39.45 C30.13,40.78 31.49,41.03 36.87,40.79 C42.88,40.53 43.53,40.29 43.82,38.25 ZM 74.00 82.00 C72.15,80.15 72.00,78.67 72.00,62.00 L 72.00 44.00 L 78.00 44.00 L 84.00 44.00 L 84.00 62.00 C84.00,78.67 83.85,80.15 82.00,82.00 C80.90,83.10 79.10,84.00 78.00,84.00 C76.90,84.00 75.10,83.10 74.00,82.00 ZM 308.75 75.26 C303.94,75.07 300.00,74.49 300.00,73.95 C300.00,72.61 313.14,53.00 314.04,53.00 C314.44,53.00 315.00,53.90 315.29,55.00 C315.75,56.76 316.65,57.00 322.91,57.00 C326.81,57.00 330.00,57.26 330.00,57.58 C330.00,58.23 317.86,76.12 317.64,75.79 C317.56,75.68 313.56,75.44 308.75,75.26 ZM 140.31 73.99 C136.73,72.55 134.66,68.49 135.34,64.23 C136.13,59.33 139.10,57.00 144.54,57.00 C148.01,57.00 149.26,57.52 150.93,59.63 C153.99,63.53 153.65,68.50 150.08,72.08 C147.11,75.05 144.30,75.60 140.31,73.99 ZM 185.24 72.84 C184.48,72.08 184.00,68.77 184.00,64.30 L 184.00 57.00 L 187.54 57.00 L 191.08 57.00 L 190.79 65.25 C190.53,72.64 190.29,73.53 188.49,73.79 C187.38,73.95 185.92,73.52 185.24,72.84 ZM 363.00 58.56 C363.00,56.42 367.00,54.00 370.53,54.00 C373.92,54.00 376.39,55.54 377.33,58.25 C377.87,59.81 377.15,60.00 370.47,60.00 C364.63,60.00 363.00,59.69 363.00,58.56 Z" fill="rgb(254,254,254)" data-index="2" style="visibility: hidden;"></path>
</g>
</svg>